<?xml version="1.0" encoding="utf-8"?>
<!-- Generator: Adobe Illustrator 19.2.1, SVG Export Plug-In . SVG Version: 6.00 Build 0)  -->
<svg version="1.1" id="Livello_1" xmlns="http://www.w3.org/2000/svg" xmlns:xlink="http://www.w3.org/1999/xlink" x="0px" y="0px"
	 viewBox="0 0 361.5 164" style="enable-background:new 0 0 361.5 164;" xml:space="preserve">
<style type="text/css">
	.st0{fill:#0B86A8;}
</style>
<path class="st0" d="M71.4,77.1h-0.3v19.5v1h20.5v-1V78.1v-1L71.4,77.1L71.4,77.1z M81.8,78.1h8.8v8.8h-8.8V78.1z M81.8,87.8h8.8
	v8.8h-8.8V87.8z M72.1,78.1h8.8v8.8h-8.8V78.1z M72.1,87.8h8.8v8.8h-8.8V87.8z M172.9,77.1h-0.3v19.5h0v1H193v-0.1v-0.9V78.1v-1
	L172.9,77.1L172.9,77.1z M183.3,78.1h8.8v8.8h-8.8V78.1z M183.3,87.8h8.8v8.8h-8.8V87.8z M173.5,78.1h8.8v8.8h-8.8V78.1z
	 M173.5,87.8h8.8v8.8h-8.8V87.8z M202.9,142.3v-0.8v-15v-0.8v-0.2h-17v1v15v0.7v0.2h17V142.3z M194,141.5h-7v-7h7V141.5z M194,133.5
	h-7v-7h7V133.5z M202,141.5h-7v-7h7V141.5z M202,133.5h-7v-7h7V133.5z M215.1,141.5v0.7v0.2h17v-0.1v-0.8v-15v-0.8v-0.2h-17v1h0
	V141.5z M224.1,126.4h7v7h-7V126.4z M224.1,134.4h7v7h-7V134.4z M216.1,126.4h7v7h-7V126.4z M216.1,134.4h7v7h-7V134.4z M69.6,142.3
	v-0.8v-15v-0.8v-0.2h-17v1v15v0.7v0.2h17V142.3z M60.6,141.5h-7v-7h7V141.5z M60.6,133.5h-7v-7h7V133.5z M61.6,126.4h7v7h-7V126.4z
	 M68.6,141.5h-7v-7h7V141.5z M123.5,74.4h-0.3v22.2v1h20.5v-1V75.4v-1L123.5,74.4L123.5,74.4z M133.9,75.4h8.8v21.3h-8.8V75.4z
	 M124.2,75.4h8.8v21.3h-8.8V75.4z M340.4,157.8v-33.5h5V124h0.1v-11.9h0v-1h0v0h-1v0h-3.3v0h-1v0h-6.7v0h-1v0h-6.7v0h-1v0h-6.7v0h-1
	v0h-6.7v0h-1v0h-6.7v0h-1v0h-6.7v0h-1v0h-6.7v0h-1v0h-6.7v0h-1v0h-6.7v0h-1v0h-6.7v0h-1v0h-6.2l1.3-1.7l-15.3-11.3v-41h-0.9v0h-54.6
	l-56.6-41.8l-0.8-0.7l-0.8,0.7L103.7,35H13.3v1v50.4v1h2.2V102l-12.1,9.2l1.7,2.2l125.3-95.2l125.8,93h-0.4v0h-2.2L130.8,20.6
	l-0.4-0.3l-0.3,0.2L6.3,114.7l0.8,1.1l12.7-9.7v9.3H18v42.4H2v1h356.6v-1H340.4z M341.2,112.1h3.3v10.7h-3.3V112.1z M27.5,36h4.1
	v50.4h-4.1V36z M21.4,36h4.1v50.4h-4.1V36z M15.4,86.4V36h4.1v50.4H15.4z M17.5,100.5V90.1h13.6L17.5,100.5z M32.5,89.2H17.5v-1.8
	h17.3L32.5,89.2z M37.6,85.2l-1.5,1.2h-2.5V36h4.1V85.2z M43.7,80.6l-4,3.1V36h4V80.6z M49.8,76l-4.1,3.1V36h4.1V76z M55.9,71.4
	l-4.1,3.1V36h4.1V71.4z M61.9,66.8l-4.1,3.1V36h4.1V66.8z M68,62.1l-4,3.1V36h4V62.1z M74.1,57.5L70,60.6V36h4.1V57.5z M80.2,52.9
	L76.1,56V36h4.1V52.9z M86.2,48.3l-4,3.1V36h4V48.3z M92.3,43.7l-4.1,3.1V36h4.1V43.7z M98.4,39.1l-4,3.1V36h4V39.1z M100.4,37.5V36
	h2L100.4,37.5z M198.4,65l-9.3-6.9h9.3V65z M208.4,72.4l-9.1-6.7v-7.6h9.1V72.4z M218.5,79.9l-8-5.9h8V79.9z M218.5,73h-9.1V58.1
	h9.1V73z M228.5,87.3l-9.1-6.7V74h9.1V87.3z M228.5,73h-9.1V58.1h9.1V73z M238.5,94.7l-9.1-6.7V74h9.1V94.7z M238.5,73h-9.1V58.1
	h9.1V73z M241.1,96.6l-1.6-1.2V74h1.6V96.6z M241.1,73h-1.6V58.1h1.6V73z M325.8,112.1h6.7v10.7h-6.7V112.1z M318.1,112.1h6.7v10.7
	h-6.7V112.1z M310.5,112.1h6.7v10.7h-6.7V112.1z M302.8,112.1h6.7v10.7h-6.7V112.1z M295.1,112.1h6.7v10.7h-6.7V112.1z M287.4,112.1
	h6.7v10.7h-6.7V112.1z M279.7,112.1h6.7v10.7h-6.7V112.1z M272.1,112.1h6.7v10.7h-6.7V112.1z M264.4,112.1h6.7v10.7h-6.7V112.1z
	 M256.7,112.1h6.7v10.7h-6.7V112.1z M255.8,112.1v0.6l-0.9-0.6H255.8z M255.2,114.1l0.6-0.8v9.6H249v-10.7h3.5L255.2,114.1z
	 M245.2,106.7l6.1,4.5H249v0h-1v0h-2.9V106.7z M221.6,89.3l0.7,0.6v30.8h-0.7V89.3z M163.7,46.5l55.9,41.2v32.9h-55.9V46.5z
	 M102.1,43.5L130.4,22l31.3,23.1v75.6h-59.5V43.5z M45.3,86.8L100.1,45v75.6H45.3V86.8z M42.4,88.9l0.8-0.6v32.4h-0.8V88.9z
	 M21.4,157.8H20v-36h1.5V157.8z M23.2,115.5h-1.4v-10.8h-0.1l1.6-1.2V115.5z M110.1,157.8h-6.8v-32.1h6.8V157.8z M130.5,157.8h-19.4
	v-32.1h19.4V157.8z M132.3,157.8h-0.8v-32.1h0.8V157.8z M152.1,157.8h-18.8v-32.1h18.8V157.8z M159.9,157.8h-6.8v-32.1h6.8V157.8z
	 M241.3,157.8h-80.5v-32.1h0v-2h0v0h-1v0h-6.8v0h-1v0h-18.8v0h-1v0h-0.8v0h-1v0h-19.4v0h-1v0h-6.8v0h-1v0h0v2h0v32.1H23.5v-35.2
	h217.9V157.8z M243.1,115.5h-1.7V104l1.7,1.2V115.5z M244.8,157.8h-1.5v-36h1.5V157.8z M245.2,112.1h2.9v10.7h-1.2v-7.3h-1.7V112.1z
	 M275.9,157.8h-29v-30.1h29V157.8z M305.2,157.8h-27.3v-30.1h27.3V157.8z M334.2,157.8h-27v-31.1h0v-1h-60.3v-1.3h87.4V157.8z
	 M338.3,157.8h-2.1v-33.5h2.1V157.8z M340.2,122.8h-6.7v-10.7h6.7V122.8z M130.2,32.1l-27.7,21.2h19l8.7,8.7l8.7-8.7h19L130.2,32.1
	L130.2,32.1z M120.9,51.5h-13l20.9-15.9l0,7.8L120.9,51.5z M131.6,35.4l20.9,16.1h-13l-7.9-8.1V35.4z M137.2,52.4l-7,7l-7-7l7-7
	L137.2,52.4z M137.2,19.1l8.3,6.1l0,0l5.7,4.2V8.8l-10-5.6l0,17.6l-4-2.9l0-15l-8,4.8l0,5.3L137.2,19.1L137.2,19.1z M150.2,9.4v18.2
	l-8.1-6l0-16.8L150.2,9.4z M130.3,12.9L130.3,12.9l-0.2-0.2l0-4.4l6.2-3.7l0,12.7L130.3,12.9z"/>
</svg>
